<mxfile host="app.diagrams.net" modified="2023-10-31T23:32:15.290Z" agent="Mozilla/5.0 (Windows NT 10.0; Win64; x64) AppleWebKit/537.36 (KHTML, like Gecko) Chrome/118.0.0.0 Safari/537.36" version="22.0.8" etag="aFj_GBFUBJkqKa6YcbYL" type="github">
  <diagram name="PÃ¡gina-1" id="ogbWZTZn2_xNKHkKGdDc">
    <mxGraphModel>
      <root>
        <mxCell id="0" />
        <mxCell id="1" parent="0" />
      </root>
    </mxGraphModel>
  </diagram>
</mxfile>
